<svg id="discord-icon" xmlns="http://www.w3.org/2000/svg" width="28.617" height="32.519" viewBox="0 0 28.617 32.519">
  <path id="Path_44905" data-name="Path 44905" d="M9.111,10.488a1.737,1.737,0,0,0-1.669,1.8,1.748,1.748,0,0,0,1.669,1.8,1.736,1.736,0,0,0,1.668-1.8A1.726,1.726,0,0,0,9.111,10.488Zm5.968,0a1.736,1.736,0,0,0-1.668,1.8,1.673,1.673,0,1,0,3.335,0A1.736,1.736,0,0,0,15.079,10.488Z" transform="translate(2.238 3.154)" fill="#03d1fc"/>
  <path id="Path_44906" data-name="Path 44906" d="M25.265,0H3.352A3.351,3.351,0,0,0,0,3.349V25.332a3.351,3.351,0,0,0,3.352,3.349H21.9l-.866-3.009,2.093,1.936L25.1,29.43l3.516,3.089V3.349A3.351,3.351,0,0,0,25.265,0ZM18.952,21.235s-.588-.7-1.08-1.316a5.164,5.164,0,0,0,2.961-1.936,9.377,9.377,0,0,1-1.881.96,10.809,10.809,0,0,1-2.371.7,11.52,11.52,0,0,1-4.235-.016,13.787,13.787,0,0,1-2.4-.7,9.609,9.609,0,0,1-1.193-.553c-.049-.033-.1-.048-.147-.082a.183.183,0,0,1-.065-.048c-.3-.163-.459-.277-.459-.277a5.092,5.092,0,0,0,2.862,1.92c-.49.617-1.1,1.349-1.1,1.349a5.933,5.933,0,0,1-4.987-2.471,21.687,21.687,0,0,1,2.354-9.48,8.114,8.114,0,0,1,4.6-1.707l.163.2A11.04,11.04,0,0,0,7.669,9.9s.36-.2.965-.472a12.282,12.282,0,0,1,3.711-1.024,1.579,1.579,0,0,1,.278-.034A13.385,13.385,0,0,1,20.849,9.9a10.9,10.9,0,0,0-4.071-2.064l.229-.26a8.11,8.11,0,0,1,4.6,1.708,21.678,21.678,0,0,1,2.354,9.479,5.98,5.98,0,0,1-5,2.471Z" transform="translate(0 0)" fill="#03d1fc"/>
</svg>
