<svg xmlns="http://www.w3.org/2000/svg" xmlns:xlink="http://www.w3.org/1999/xlink" width="33.121" height="33.121" viewBox="0 0 33.121 33.121">
  <defs>
    <clipPath id="clip-path">
      <path id="Path_44924" data-name="Path 44924" d="M0,0H33.121V33.121H0Z" fill="#03d1fc"/>
    </clipPath>
  </defs>
  <g id="github-icon" clip-path="url(#clip-path)">
    <path id="Path_44922" data-name="Path 44922" d="M16.561,0A16.776,16.776,0,0,0,0,16.982,16.95,16.95,0,0,0,11.326,33.094c.828.157,1.132-.368,1.132-.818,0-.406-.017-1.744-.022-3.16-4.609,1.025-5.58-2-5.58-2a4.483,4.483,0,0,0-1.838-2.485c-1.5-1.054.113-1.032.113-1.032A3.5,3.5,0,0,1,7.67,25.343a3.477,3.477,0,0,0,4.818,1.412,3.665,3.665,0,0,1,1.05-2.272c-3.676-.431-7.543-1.887-7.543-8.391A6.671,6.671,0,0,1,7.7,11.534a6.249,6.249,0,0,1,.159-4.493s1.39-.455,4.554,1.74a15.382,15.382,0,0,1,8.3,0c3.16-2.2,4.549-1.74,4.549-1.74a6.224,6.224,0,0,1,.161,4.493,6.65,6.65,0,0,1,1.7,4.558c0,6.521-3.875,7.957-7.56,8.38a4.1,4.1,0,0,1,1.125,3.142c0,2.273-.019,4.1-.019,4.66,0,.453.3.98,1.137.814A16.944,16.944,0,0,0,33.121,16.983,16.776,16.776,0,0,0,16.561,0Z" fill="#03d1fc"/>
    <path id="Path_44923" data-name="Path 44923" d="M4.667,17.745c-.036.086-.168.11-.286.051s-.186-.171-.148-.255.164-.11.284-.055S4.707,17.661,4.667,17.745Zm.671.769c-.079.076-.232.039-.337-.079a.263.263,0,0,1-.05-.352c.083-.076.23-.04.341.079s.128.276.046.352Zm.653.977c-.1.075-.268.007-.37-.145a.3.3,0,0,1,0-.406c.1-.073.266-.008.37.144s.1.335,0,.408Zm.894.945c-.091.1-.286.076-.425-.065a.333.333,0,0,1-.094-.433c.094-.1.286-.072.428.065S6.982,20.334,6.885,20.436Zm1.234.548a.32.32,0,0,1-.414.138c-.186-.058-.311-.213-.272-.348s.225-.2.414-.138S8.158,20.85,8.119,20.984Zm1.355.1c.006.141-.153.255-.352.258s-.359-.11-.359-.247.156-.255.355-.259S9.474,20.948,9.474,21.086Zm1.261-.219c.025.138-.113.276-.311.315s-.37-.047-.395-.182.116-.282.308-.317.373.047.4.185Z" transform="translate(1.605 6.634)" fill="#03d1fc"/>
  </g>
</svg>
