<svg id="home-icon" xmlns="http://www.w3.org/2000/svg" xmlns:xlink="http://www.w3.org/1999/xlink" width="35.308" height="34.175" viewBox="0 0 35.308 34.175">
  <defs>
    <clipPath id="clip-path">
      <rect id="Rectangle_1702" data-name="Rectangle 1702" width="35.308" height="34.175" fill="#03d1fc"/>
    </clipPath>
  </defs>
  <g id="Group_23307" data-name="Group 23307" clip-path="url(#clip-path)">
    <path id="Path_44930" data-name="Path 44930" d="M0,16.6v-.758A3.142,3.142,0,0,1,.816,14.74Q8.5,7.709,16.179.666A2,2,0,0,1,19.124.625q6.515,5.7,13.034,11.4c.864.756,1.734,1.5,2.583,2.277a1.489,1.489,0,0,1,.456,1.72A3.266,3.266,0,0,1,33.3,17.9a.828.828,0,0,1-.919-.2c-.178-.168-.369-.322-.6-.524v.447q0,7.25,0,14.5c0,.172,0,.345-.012.516a1.627,1.627,0,0,1-1.438,1.467q-3.374,0-6.748,0c-.1,0-.21-.034-.286.068h-.138c-.088-.119-.239-.109-.356-.173a1.756,1.756,0,0,1-.9-1.72c.008-3.431,0-6.862.01-10.293,0-.29-.05-.385-.368-.383q-3.563.024-7.127,0c-.3,0-.372.071-.371.372.012,3.431.006,6.862.009,10.293a1.841,1.841,0,0,1-.743,1.581,4.017,4.017,0,0,1-.7.322h-.138c-.077-.1-.188-.067-.286-.068q-2.987,0-5.974,0c-.1,0-.209-.033-.286.068H5.789A2.088,2.088,0,0,1,4.4,31.865c.033-4.831.015-9.663.011-14.494,0-.115.046-.244-.048-.361-.355.316-.7.624-1.041.927a1.7,1.7,0,0,1-2.285.036A3.252,3.252,0,0,1,0,16.6" transform="translate(0 0)" fill="#03d1fc"/>
  </g>
</svg>
