<svg xmlns="http://www.w3.org/2000/svg" xmlns:xlink="http://www.w3.org/1999/xlink" width="529.658" height="114.617" viewBox="0 0 529.658 114.617">
  <defs>
    <clipPath id="clip-path">
      <rect id="Rectangle_65" width="529.658" height="38.441" fill="#fff"/>
    </clipPath>
    <filter id="Tools" x="152.525" y="61.617" width="222" height="53" filterUnits="userSpaceOnUse">
      <feOffset dy="3" />
      <feGaussianBlur stdDeviation="1" result="blur"/>
      <feFlood flood-opacity="0.635"/>
      <feComposite operator="in" in2="blur"/>
      <feComposite in="SourceGraphic"/>
    </filter>
  </defs>
  <g id="synthetix-tools-logo" transform="translate(-223 -124)">
    <g id="Group_46"  transform="translate(223 124)" clip-path="url(#clip-path)">
      <path id="Path_9" d="M51.114,18.23a11.234,11.234,0,0,0-8.145-3.311H11.532a2.082,2.082,0,0,1-1.5-.609A1.987,1.987,0,0,1,9.4,12.826v-2.55a1.948,1.948,0,0,1,.628-1.446,2.086,2.086,0,0,1,1.5-.609H52.066a.334.334,0,0,0,.247-.1.289.289,0,0,0,.1-.209V.3a.276.276,0,0,0-.1-.228A.388.388,0,0,0,52.066,0H11.532A11.216,11.216,0,0,0,3.368,3.312,10.8,10.8,0,0,0,0,11.3V11.8a10.843,10.843,0,0,0,3.368,8.031,11.215,11.215,0,0,0,8.164,3.311H42.969a2.07,2.07,0,0,1,1.465.59,1.929,1.929,0,0,1,.628,1.466v2.55a1.928,1.928,0,0,1-.628,1.466,2.074,2.074,0,0,1-1.465.59H2.4a.289.289,0,0,0-.209.1.336.336,0,0,0-.1.248v7.612a.328.328,0,0,0,.3.3H42.969a11.2,11.2,0,0,0,8.145-3.33A10.832,10.832,0,0,0,54.5,26.719v-.5A10.776,10.776,0,0,0,51.114,18.23Z" transform="translate(0 0)" fill="#00d1ff"/>
      <path id="Path_10" d="M147.029,0h-8.792a.329.329,0,0,0-.209.076.276.276,0,0,0-.1.228V9.971a2.049,2.049,0,0,1-1.294,1.9l-17.545,7.269-17.545-7.269a2.048,2.048,0,0,1-1.294-1.9V.3a.311.311,0,0,0-.076-.228A.317.317,0,0,0,99.95,0H91.157a.328.328,0,0,0-.209.076.276.276,0,0,0-.1.228V11.38a7.987,7.987,0,0,0,1.371,4.529,8.164,8.164,0,0,0,3.73,3.044l18.421,7.726V37.717a.327.327,0,0,0,.342.343h8.792a.29.29,0,0,0,.209-.1.335.335,0,0,0,.1-.248V26.679l18.421-7.688a8.455,8.455,0,0,0,3.729-3.064,7.9,7.9,0,0,0,1.369-4.51V.3a.274.274,0,0,0-.1-.228A.329.329,0,0,0,147.029,0Z" transform="translate(-27.664 0)" fill="#00d1ff"/>
      <path id="Path_11"  d="M241.789,0H233a.276.276,0,0,0-.229.1.327.327,0,0,0-.076.209V29.838H229a2.165,2.165,0,0,1-1.751-.914L210.2,4a9.178,9.178,0,0,0-7.574-4H187.936a.335.335,0,0,0-.248.1.289.289,0,0,0-.1.209v37.45a.287.287,0,0,0,.1.209.334.334,0,0,0,.248.1h8.792a.328.328,0,0,0,.3-.3V8.22h3.692a2.143,2.143,0,0,1,1.751.952L219.525,34.1a9.073,9.073,0,0,0,7.573,3.958H241.79a.276.276,0,0,0,.229-.1.328.328,0,0,0,.076-.209V.3A.33.33,0,0,0,242.019.1.279.279,0,0,0,241.789,0Z" transform="translate(-57.12 0)" fill="#00d1ff"/>
      <path id="Path_12"  d="M333.172,0H279.317a.273.273,0,0,0-.228.1.323.323,0,0,0-.076.209V7.916a.321.321,0,0,0,.076.209.273.273,0,0,0,.228.1h22.226V37.754a.325.325,0,0,0,.076.209.275.275,0,0,0,.229.1h8.792a.274.274,0,0,0,.228-.1.329.329,0,0,0,.076-.209V8.22H333.17a.333.333,0,0,0,.247-.1.292.292,0,0,0,.1-.209V.3a.292.292,0,0,0-.1-.209A.327.327,0,0,0,333.172,0Z" transform="translate(-84.957 0)" fill="#00d1ff"/>
      <path id="Path_13"  d="M427.064,0h-8.792a.289.289,0,0,0-.209.1.292.292,0,0,0-.1.209V14.919H382.344V.3a.289.289,0,0,0-.1-.209A.338.338,0,0,0,382,0H373.21A.289.289,0,0,0,373,.1a.289.289,0,0,0-.1.209v37.45a.328.328,0,0,0,.3.3H382a.333.333,0,0,0,.247-.1.289.289,0,0,0,.1-.209V23.14h35.624V37.754a.328.328,0,0,0,.3.3h8.792a.333.333,0,0,0,.247-.1.289.289,0,0,0,.1-.209V.3a.294.294,0,0,0-.1-.209A.334.334,0,0,0,427.064,0Z" transform="translate(-113.547 0)" fill="#00d1ff"/>
      <path id="Path_14"  d="M520.607,0H477.942A11.23,11.23,0,0,0,469.8,3.311,10.768,10.768,0,0,0,466.41,11.3V26.717a10.81,10.81,0,0,0,3.388,8.031,11.231,11.231,0,0,0,8.144,3.312h42.664a.29.29,0,0,0,.209-.1.294.294,0,0,0,.1-.209V30.144a.276.276,0,0,0-.1-.228.329.329,0,0,0-.209-.076H477.942a2.02,2.02,0,0,1-1.484-.608,1.972,1.972,0,0,1-.609-1.446V23.14h44.73a.274.274,0,0,0,.228-.1.331.331,0,0,0,.076-.209V15.224a.268.268,0,0,0-.3-.3h-44.73V10.276a1.973,1.973,0,0,1,.609-1.446,2.021,2.021,0,0,1,1.484-.609h42.664a.29.29,0,0,0,.209-.1.293.293,0,0,0,.1-.209V.3a.291.291,0,0,0-.1-.209A.294.294,0,0,0,520.607,0Z" transform="translate(-142.018 0)" fill="#00d1ff"/>
      <path id="Path_15"  d="M614.073,0H560.218a.274.274,0,0,0-.228.1.323.323,0,0,0-.076.209V7.916a.321.321,0,0,0,.076.209.274.274,0,0,0,.228.1h22.226V37.754a.324.324,0,0,0,.076.209.276.276,0,0,0,.229.1h8.792a.274.274,0,0,0,.228-.1.321.321,0,0,0,.076-.209V8.22h22.227a.332.332,0,0,0,.247-.1.289.289,0,0,0,.1-.209V.3a.289.289,0,0,0-.1-.209A.329.329,0,0,0,614.073,0Z" transform="translate(-170.489 0)" fill="#00d1ff"/>
      <path id="Path_16"  d="M663.132.076A.314.314,0,0,0,662.9,0h-8.791a.312.312,0,0,0-.229.076.311.311,0,0,0-.076.228v37.45a.325.325,0,0,0,.076.209.274.274,0,0,0,.229.1H662.9a.276.276,0,0,0,.229-.1.33.33,0,0,0,.076-.209V.3A.315.315,0,0,0,663.132.076Z" transform="translate(-199.078 0)" fill="#00d1ff"/>
      <path id="Path_17"  d="M696.349,9.416a1.808,1.808,0,0,0-1.409-.647H683.523a.332.332,0,0,1-.247-.1.287.287,0,0,1-.1-.209V.852a.289.289,0,0,1,.1-.209.336.336,0,0,1,.247-.1h12.064a10.248,10.248,0,0,1,7.879,3.692l2.93,3.539-5.709,6.889ZM717.433,4.2A10.326,10.326,0,0,1,725.349.548h12.027a.315.315,0,0,1,.229.076.314.314,0,0,1,.076.228V8.464a.329.329,0,0,1-.076.209.277.277,0,0,1-.229.1H725.958a1.808,1.808,0,0,0-1.408.647L716.139,19.54l8.449,10.2a1.81,1.81,0,0,0,1.37.609h11.418a.277.277,0,0,1,.229.1.389.389,0,0,1,.076.247V38.3a.329.329,0,0,1-.076.209.277.277,0,0,1-.229.1H725.35a10.167,10.167,0,0,1-7.878-3.692l-7-8.449-7,8.449a10.281,10.281,0,0,1-7.916,3.692H683.523a.275.275,0,0,1-.229-.1.383.383,0,0,1-.076-.248V30.652a.326.326,0,0,1,.076-.209.275.275,0,0,1,.229-.1H694.94a1.882,1.882,0,0,0,1.409-.647l8.258-9.971Z" transform="translate(-208.023 -0.167)" fill="#00d1ff"/>
    </g>
    <g transform="matrix(1, 0, 0, 1, 223, 124)" filter="url(#Tools)">
      <text id="Tools-2" transform="translate(263.52 96.62)" fill="#fff" font-size="48" font-family="PCapTerminal-Bold, PCap Terminal" font-weight="700" letter-spacing="0.225em"><tspan x="-107" y="0">TOOLS</tspan></text>
    </g>
  </g>
</svg>
