<svg xmlns="http://www.w3.org/2000/svg" xmlns:xlink="http://www.w3.org/1999/xlink" width="33.723" height="27.4" viewBox="0 0 33.723 27.4">
  <defs>
    <clipPath id="clip-path">
      <path id="Path_44908" data-name="Path 44908" d="M0,0H33.723V27.4H0Z" fill="#03d1fc"/>
    </clipPath>
  </defs>
  <g id="twitter-icon" clip-path="url(#clip-path)">
    <path id="Path_44907" data-name="Path 44907" d="M33.723,3.246a13.889,13.889,0,0,1-3.977,1.1A6.935,6.935,0,0,0,32.8.52a14.36,14.36,0,0,1-4.4,1.686A6.865,6.865,0,0,0,23.353,0a6.937,6.937,0,0,0-6.745,8.5A19.681,19.681,0,0,1,2.347,1.265,6.941,6.941,0,0,0,4.482,10.51a7.019,7.019,0,0,1-3.133-.871A6.934,6.934,0,0,0,6.9,16.51a6.832,6.832,0,0,1-3.119.112,6.918,6.918,0,0,0,6.464,4.806A13.859,13.859,0,0,1,0,24.295,19.562,19.562,0,0,0,10.609,27.4c12.843,0,20.108-10.848,19.658-20.585a13.917,13.917,0,0,0,3.457-3.569Z" transform="translate(0)" fill="#03d1fc"/>
  </g>
</svg>
